# xmcd CD database file
#
# Track frame offsets:
#	150
#	16820
#	42995
#	68982
#	87780
#	117137
#
# Disc length: 1812 seconds
#
# Revision: 0
# Processed by: cddbd v1.5PL3 Copyright (c) Steve Scherf et al.
# Submitted via: CDex 1.51
#
DISCID=42071206
DTITLE=浅井ひろみ - Dear Friends
DYEAR=1993
DGENRE=Pop
TTITLE0=Desperado
TTITLE1=Sending my love
TTITLE2=Hurry Hurry
TTITLE3=Don't you cry
TTITLE4=White Snow
TTITLE5=The Rose
EXTD=YEAR: 1993
EXTT0=
EXTT1=
EXTT2=
EXTT3=
EXTT4=
EXTT5=
PLAYORDER=
